<svg xmlns="http://www.w3.org/2000/svg" viewBox="0 0 512 512" role="img" aria-labelledby="title desc">
  <title id="title">MR Gestão favicon</title>
  <desc id="desc">White nautical ship wheel centered on a deep blue square background.</desc>
  <rect width="512" height="512" fill="#003A78"/>
  <g fill="none" stroke="#FFFFFF" stroke-linecap="round" stroke-linejoin="round">
    <g stroke-width="30">
      <line x1="256" y1="70" x2="256" y2="138"/>
      <line x1="256" y1="374" x2="256" y2="442"/>
      <line x1="70" y1="256" x2="138" y2="256"/>
      <line x1="374" y1="256" x2="442" y2="256"/>
      <line x1="124.5" y1="124.5" x2="172.6" y2="172.6"/>
      <line x1="339.4" y1="339.4" x2="387.5" y2="387.5"/>
      <line x1="387.5" y1="124.5" x2="339.4" y2="172.6"/>
      <line x1="172.6" y1="339.4" x2="124.5" y2="387.5"/>
    </g>
    <circle cx="256" cy="256" r="126" stroke-width="28"/>
    <circle cx="256" cy="256" r="55" stroke-width="24"/>
    <g stroke-width="22">
      <line x1="256" y1="201" x2="256" y2="130"/>
      <line x1="256" y1="311" x2="256" y2="382"/>
      <line x1="201" y1="256" x2="130" y2="256"/>
      <line x1="311" y1="256" x2="382" y2="256"/>
      <line x1="217" y1="217" x2="166.8" y2="166.8"/>
      <line x1="295" y1="295" x2="345.2" y2="345.2"/>
      <line x1="295" y1="217" x2="345.2" y2="166.8"/>
      <line x1="217" y1="295" x2="166.8" y2="345.2"/>
    </g>
  </g>
</svg>
