<svg xmlns="http://www.w3.org/2000/svg" viewBox="0 0 720 180" role="img" aria-labelledby="title desc">
  <title id="title">MR Gestão logo</title>
  <desc id="desc">Modern MR Gestão wordmark paired with a deep blue nautical ship wheel icon.</desc>
  <rect width="720" height="180" fill="none"/>
  <g transform="translate(24 20)">
    <rect width="140" height="140" rx="30" fill="#003A78"/>
    <g fill="none" stroke="#FFFFFF" stroke-linecap="round" stroke-linejoin="round">
      <g stroke-width="8.5">
        <line x1="70" y1="18" x2="70" y2="37"/>
        <line x1="70" y1="103" x2="70" y2="122"/>
        <line x1="18" y1="70" x2="37" y2="70"/>
        <line x1="103" y1="70" x2="122" y2="70"/>
        <line x1="33.2" y1="33.2" x2="46.6" y2="46.6"/>
        <line x1="93.4" y1="93.4" x2="106.8" y2="106.8"/>
        <line x1="106.8" y1="33.2" x2="93.4" y2="46.6"/>
        <line x1="46.6" y1="93.4" x2="33.2" y2="106.8"/>
      </g>
      <circle cx="70" cy="70" r="35" stroke-width="8"/>
      <circle cx="70" cy="70" r="15" stroke-width="7"/>
      <g stroke-width="6">
        <line x1="70" y1="55" x2="70" y2="36"/>
        <line x1="70" y1="85" x2="70" y2="104"/>
        <line x1="55" y1="70" x2="36" y2="70"/>
        <line x1="85" y1="70" x2="104" y2="70"/>
        <line x1="59.4" y1="59.4" x2="45.9" y2="45.9"/>
        <line x1="80.6" y1="80.6" x2="94.1" y2="94.1"/>
        <line x1="80.6" y1="59.4" x2="94.1" y2="45.9"/>
        <line x1="59.4" y1="80.6" x2="45.9" y2="94.1"/>
      </g>
    </g>
  </g>
  <text x="194" y="101" fill="#101014" font-family="-apple-system, BlinkMacSystemFont, 'SF Pro Display', 'Helvetica Neue', Arial, sans-serif" font-size="62" font-weight="700" letter-spacing="0">
    MR
    <tspan font-weight="500"> Gestão</tspan>
  </text>
  <text x="198" y="136" fill="#5F6368" font-family="-apple-system, BlinkMacSystemFont, 'SF Pro Text', 'Helvetica Neue', Arial, sans-serif" font-size="19" font-weight="500" letter-spacing="2.4">
    CONTROLADORIA E GESTÃO
  </text>
</svg>
